<svg width="31" height="31" viewBox="0 0 31 31" fill="none" xmlns="http://www.w3.org/2000/svg">
<g clip-path="url(#clip0_1600_69677)">
<path d="M20.1072 0.581787L30.1072 30.5818H22.7947C21.7322 30.5818 20.7947 30.1443 20.1072 29.4255C19.7322 29.0505 19.4509 28.5818 19.2634 28.0818L10.1072 0.581787L20.1072 0.581787Z" fill="#0F9D58"/>
<path d="M20.1072 0.581787L15.1072 15.5818L30.1072 30.5818L20.1072 0.581787Z" fill="url(#paint0_linear_1600_69677)"/>
<path opacity="0.2" d="M0.107178 30.5818L0.169678 30.4255L0.107178 30.5818Z" fill="#263238"/>
<path d="M10.1072 0.581787L0.107178 30.5818H7.41968C8.48218 30.5818 9.41968 30.1443 10.1072 29.4255C10.4822 29.0505 10.7634 28.5818 10.9509 28.0818L20.1072 0.581787L10.1072 0.581787Z" fill="#4285F5"/>
<path d="M20.0134 0.738037L20.1072 0.581787L10.1072 0.581787L0.107178 30.5818L0.200928 30.4255L10.1072 0.738037L20.0134 0.738037Z" fill="white" fill-opacity="0.2"/>
<path d="M10.9509 27.9255C10.9509 27.9568 10.9509 27.9568 10.9509 27.9255C10.7634 28.4255 10.4822 28.8943 10.1072 29.2693C9.41968 29.9568 8.48218 30.4255 7.41968 30.4255H0.200928L0.107178 30.5818H7.41968C8.48218 30.5818 9.41968 30.1443 10.1072 29.4255C10.4822 29.0505 10.7634 28.5818 10.9509 28.0818L20.1072 0.581787L20.0134 0.738037L10.9509 27.9255Z" fill="#263238" fill-opacity="0.2"/>
<path d="M10.9509 28.113C10.7634 28.613 10.4822 29.0818 10.1072 29.4568C9.41968 30.1443 8.48218 30.613 7.41968 30.613L0.169678 30.5818L0.107178 30.738H7.41968C8.48218 30.738 9.41968 30.3005 10.1072 29.5818C10.4822 29.2068 10.7634 28.738 10.9509 28.238L20.1384 0.644287L20.1072 0.581787L10.9509 28.113Z" fill="#263238" fill-opacity="0.1"/>
<path d="M30.0447 30.4255L20.1072 0.581787V0.738037L30.0134 30.4255H22.7634C21.7009 30.4255 20.7634 29.988 20.0759 29.2693C19.7009 28.8943 19.4197 28.4255 19.2322 27.9255L19.2947 28.0818C19.4822 28.5818 19.7634 29.0505 20.1384 29.4255C20.8259 30.113 21.7634 30.5818 22.8259 30.5818H30.1072L30.0447 30.4255Z" fill="#263238" fill-opacity="0.2"/>
<g opacity="0.1">
<path d="M20.1072 0.581787L10.1072 0.581787L0.107178 30.5818H7.41968C8.48218 30.5818 9.41968 30.1443 10.1072 29.4255C10.4822 29.0505 10.7634 28.5818 10.9509 28.0818L15.1072 15.5818L19.2634 28.0818C19.4509 28.5818 19.7322 29.0505 20.1072 29.4255C20.7947 30.113 21.7322 30.5818 22.7947 30.5818H30.1072L20.1072 0.581787Z" fill="url(#paint1_radial_1600_69677)"/>
</g>
</g>
<defs>
<linearGradient id="paint0_linear_1600_69677" x1="16.1131" y1="12.6384" x2="33.6853" y2="18.3893" gradientUnits="userSpaceOnUse">
<stop stop-color="#263238" stop-opacity="0.2"/>
<stop offset="1" stop-color="#263238" stop-opacity="0"/>
</linearGradient>
<radialGradient id="paint1_radial_1600_69677" cx="0" cy="0" r="1" gradientUnits="userSpaceOnUse" gradientTransform="translate(10.0512 0.59085) scale(35.9984)">
<stop stop-color="white"/>
<stop offset="1" stop-color="white" stop-opacity="0"/>
</radialGradient>
<clipPath id="clip0_1600_69677">
<rect width="30" height="30" fill="white" transform="translate(0.107178 0.581787)"/>
</clipPath>
</defs>
</svg>
