<svg width="37" height="25" viewBox="0 0 37 25" fill="none" xmlns="http://www.w3.org/2000/svg">
<g clip-path="url(#clip0_1600_69701)">
<path d="M3.91297 16.7617C3.91297 18.1414 4.21366 19.2006 4.60697 19.8414C5.12251 20.6808 5.89138 21.037 6.67529 21.037C7.68622 21.037 8.61115 20.7844 10.3935 18.3028C11.8218 16.3137 13.504 13.5218 14.6361 11.7715L16.5534 8.80608C17.8851 6.74668 19.4266 4.45737 21.1941 2.90559C22.6374 1.63895 24.1935 0.935333 25.76 0.935333C28.39 0.935333 30.8951 2.46956 32.8123 5.347C34.9105 8.49824 35.929 12.4677 35.929 16.5638C35.929 18.999 35.4522 20.7882 34.6408 22.2018C33.857 23.5688 32.3292 24.9347 29.7592 24.9347V21.0364C31.9598 21.0364 32.5089 19.0008 32.5089 16.6712C32.5089 13.3515 31.74 9.66756 30.0462 7.03515C28.8443 5.16796 27.2866 4.02709 25.5728 4.02709C23.7192 4.02709 22.2276 5.43463 20.5512 7.94354C19.66 9.27678 18.7451 10.9014 17.7178 12.7346L16.5869 14.7514C14.3155 18.8068 13.7399 19.73 12.6041 21.2538C10.6133 23.9224 8.9132 24.9341 6.67529 24.9341C4.02032 24.9341 2.34155 23.7768 1.30175 22.0328C0.453044 20.6117 0.0361328 18.747 0.0361328 16.6223L3.91297 16.7617Z" fill="#0081FB"/>
<path d="M3.09302 5.62156C4.87041 2.86353 7.43548 0.934738 10.3775 0.934738C12.0812 0.934738 13.7753 1.44236 15.5437 2.89622C17.4783 4.48538 19.5403 7.10372 22.1129 11.4172L23.0353 12.9647C25.2621 16.6991 26.5289 18.6203 27.2704 19.5263C28.2239 20.6897 28.8917 21.0366 29.7592 21.0366C31.9599 21.0366 32.5089 19.001 32.5089 16.6714L35.929 16.5633C35.929 18.9985 35.4523 20.7878 34.6408 22.2014C33.8571 23.5684 32.3293 24.9343 29.7592 24.9343C28.1615 24.9343 26.7461 24.585 25.1809 23.0984C23.9781 21.9576 22.5709 19.9308 21.4887 18.1089L18.2696 12.6959C16.6546 9.97935 15.1725 7.95385 14.3155 7.03652C13.393 6.05003 12.2072 4.85891 10.3149 4.85891C8.78349 4.85891 7.48284 5.94075 6.39448 7.5956L3.09302 5.62156Z" fill="url(#paint0_linear_1600_69701)"/>
<path d="M10.3149 4.85891C8.78345 4.85891 7.4828 5.94075 6.39444 7.5956C4.85534 9.93394 3.91372 13.4169 3.91372 16.7617C3.91372 18.1414 4.21442 19.2006 4.60772 19.8414L1.30175 22.0328C0.453044 20.6118 0.0361328 18.747 0.0361328 16.6224C0.0361328 12.7586 1.08961 8.73148 3.09298 5.62156C4.87038 2.86353 7.43544 0.934738 10.3774 0.934738L10.3149 4.85891Z" fill="url(#paint1_linear_1600_69701)"/>
</g>
<defs>
<linearGradient id="paint0_linear_1600_69701" x1="7.81691" y1="12.3125" x2="32.5317" y2="13.5525" gradientUnits="userSpaceOnUse">
<stop stop-color="#0064E1"/>
<stop offset="0.4" stop-color="#0064E1"/>
<stop offset="0.83" stop-color="#0073EE"/>
<stop offset="1" stop-color="#0082FB"/>
</linearGradient>
<linearGradient id="paint1_linear_1600_69701" x1="5.2067" y1="18.4002" x2="5.2067" y2="9.22775" gradientUnits="userSpaceOnUse">
<stop stop-color="#0082FB"/>
<stop offset="1" stop-color="#0064E0"/>
</linearGradient>
<clipPath id="clip0_1600_69701">
<rect width="36" height="24" fill="white" transform="translate(0.0288086 0.934738)"/>
</clipPath>
</defs>
</svg>
