<svg width="29" height="31" viewBox="0 0 29 31" fill="none" xmlns="http://www.w3.org/2000/svg">
<g clip-path="url(#clip0_1600_69716)">
<path d="M28.0289 27.1806C28.0404 29.2403 26.3241 30.9175 24.1972 30.9286C24.0391 30.9298 23.8797 30.9212 23.7229 30.9026C21.749 30.62 20.3031 28.9577 20.3515 27.0275V4.83575C20.3043 2.90313 21.7541 1.24079 23.7293 0.960644C25.8421 0.721227 27.756 2.18488 28.0034 4.2298C28.0213 4.38037 28.0302 4.53093 28.0289 4.68272V27.1806Z" fill="#F9AB00"/>
<path d="M3.86815 23.5029C5.98864 23.5029 7.70748 25.1665 7.70748 27.2188C7.70748 29.2711 5.98864 30.9347 3.86815 30.9347C1.74765 30.9347 0.0288086 29.2711 0.0288086 27.2188C0.0288086 25.1665 1.74765 23.5029 3.86815 23.5029ZM13.9695 12.2417C11.8388 12.3552 10.1863 14.0842 10.236 16.1488V26.1291C10.236 28.838 11.4678 30.4818 13.272 30.8323C15.3543 31.2408 17.383 29.9388 17.805 27.9235C17.8573 27.6767 17.8828 27.4262 17.8815 27.1744V15.9761C17.8854 13.9163 16.164 12.2441 14.0358 12.2404C14.0141 12.2404 13.9912 12.2404 13.9695 12.2417Z" fill="#E37400"/>
</g>
<defs>
<clipPath id="clip0_1600_69716">
<rect width="28" height="30" fill="white" transform="translate(0.0288086 0.934753)"/>
</clipPath>
</defs>
</svg>
